<svg width="21" height="20" fill="none" xmlns="http://www.w3.org/2000/svg"><path d="M18.528 9.863l-8.053-8.039a.625.625 0 00-.884 0l-8.054 8.04a1.252 1.252 0 00.884 2.135h.848v5.735c0 .346.28.625.626.625h4.886v-4.375h2.19v4.375h5.2a.625.625 0 00.625-.625v-5.736h.849a1.25 1.25 0 00.884-2.135z" fill="url(#paint0_linear_1_3526)"/><path d="M18.528 9.863l-8.053-8.039a.625.625 0 00-.884 0l-8.054 8.04a1.252 1.252 0 00.884 2.135h.848v5.735c0 .346.28.625.626.625h4.886v-4.375h2.19v4.375h5.2a.625.625 0 00.625-.625v-5.736h.849a1.25 1.25 0 00.884-2.135z" fill="#000" fill-opacity=".2"/><defs><linearGradient id="paint0_linear_1_3526" x1="10.032" y1="1.641" x2="10.032" y2="18.359" gradientUnits="userSpaceOnUse"><stop stop-color="#005BBB"/><stop offset="1" stop-color="#6DB4FF"/></linearGradient></defs></svg>