<svg width="21" height="20" fill="none" xmlns="http://www.w3.org/2000/svg"><path d="M16.665 17.5a10.018 10.018 0 00.876-.042v-4.875l-4.172-.833-2.419 2.417a15.56 15.56 0 01-2.91-2.271 13.666 13.666 0 01-2.2-2.813l2.378-2.396L7.446 2.5h-4.88a2.224 2.224 0 00-.042.438v.437c0 1.792.4 3.538 1.2 5.24a16.023 16.023 0 003.17 4.53 15.631 15.631 0 004.525 3.168c1.703.791 3.452 1.187 5.246 1.187z" fill="url(#paint0_linear_1_3536)"/><defs><linearGradient id="paint0_linear_1_3536" x1="10.032" y1="2.5" x2="10.032" y2="17.5" gradientUnits="userSpaceOnUse"><stop stop-color="#005BBB"/><stop offset="1" stop-color="#6DB4FF"/></linearGradient></defs></svg>