<svg width="21" height="20" fill="none" xmlns="http://www.w3.org/2000/svg"><path d="M4.193 17.5a1.61 1.61 0 01-1.179-.489 1.606 1.606 0 01-.49-1.177c0-.459.164-.851.49-1.178a1.61 1.61 0 011.179-.49c.459 0 .851.164 1.178.49.327.327.49.72.49 1.178 0 .458-.163.85-.49 1.177a1.61 1.61 0 01-1.178.49zm10.01 0c0-1.61-.305-3.121-.917-4.531a11.875 11.875 0 00-2.513-3.709 11.889 11.889 0 00-3.712-2.51 11.317 11.317 0 00-4.537-.917v-2.5c1.96 0 3.803.372 5.527 1.115a14.324 14.324 0 014.505 3.031 14.319 14.319 0 013.035 4.5c.744 1.723 1.116 3.563 1.116 5.521h-2.503zm-5.005 0c0-1.847-.65-3.42-1.95-4.718-1.3-1.3-2.874-1.948-4.724-1.948v-2.5c1.28 0 2.475.24 3.588.719a9.254 9.254 0 012.91 1.957 9.241 9.241 0 011.96 2.907c.48 1.11.72 2.305.72 3.583H9.197z" fill="url(#paint0_linear_1_3538)"/><defs><linearGradient id="paint0_linear_1_3538" x1="9.615" y1="3.333" x2="9.615" y2="17.5" gradientUnits="userSpaceOnUse"><stop stop-color="#005BBB"/><stop offset="1" stop-color="#6DB4FF"/></linearGradient></defs></svg>