<svg width="198" height="36" viewBox="0 0 198 36" fill="none" xmlns="http://www.w3.org/2000/svg">
<path d="M27.8643 0H8.3762C3.80571 0 0.100586 3.70108 0.100586 8.26658V27.7334C0.100586 32.2989 3.80571 36 8.3762 36H27.8643C32.4348 36 36.1399 32.2989 36.1399 27.7334V8.26658C36.1399 3.70108 32.4348 0 27.8643 0Z" fill="#5081FF"/>
<path d="M10.3649 23.8491C10.4276 23.9458 10.4708 24.054 10.4919 24.1675C10.513 24.2809 10.5116 24.3975 10.4879 24.5104C10.4642 24.6234 10.4186 24.7305 10.3537 24.8257C10.2887 24.9209 10.2058 25.0024 10.1096 25.0654C10.0133 25.1284 9.90568 25.1718 9.79278 25.193C9.67987 25.2142 9.56391 25.2128 9.45152 25.189C9.33914 25.1652 9.23252 25.1193 9.13776 25.0541C9.043 24.9888 8.96196 24.9055 8.89926 24.8088C7.73452 23.0078 7.11262 20.9069 7.10842 18.759C7.10422 16.6111 7.71791 14.5078 8.8756 12.7023C8.93792 12.6053 9.01864 12.5216 9.11314 12.456C9.20765 12.3903 9.31409 12.3441 9.4264 12.3198C9.5387 12.2955 9.65467 12.2937 9.76767 12.3144C9.88068 12.3352 9.98851 12.3781 10.085 12.4407C10.1815 12.5033 10.2648 12.5844 10.3301 12.6794C10.3954 12.7744 10.4415 12.8813 10.4656 12.9942C10.4898 13.1071 10.4916 13.2236 10.471 13.3372C10.4503 13.4507 10.4076 13.5591 10.3453 13.6561C9.96661 14.2473 9.65498 14.8794 9.41624 15.5403C8.92332 16.9045 8.75245 18.365 8.91708 19.8068C9.08171 21.2486 9.57736 22.6327 10.3649 23.8491ZM13.2476 10.7964C14.7814 9.85026 16.5548 9.37005 18.354 9.41367C20.1533 9.45729 21.9015 10.0229 23.3882 11.0423C23.5797 11.1738 23.8153 11.2235 24.0433 11.1804C24.2713 11.1374 24.4729 11.005 24.6038 10.8126C24.7347 10.6201 24.7842 10.3833 24.7413 10.1542C24.6984 9.92509 24.5668 9.72248 24.3752 9.59094C22.6094 8.38075 20.5331 7.70928 18.3964 7.65739C16.2596 7.60549 14.1535 8.17538 12.3315 9.29843C12.1391 9.42295 12.0028 9.61829 11.952 9.84257C11.9012 10.0668 11.9399 10.3022 12.0597 10.4982C12.1796 10.6941 12.371 10.8351 12.5931 10.8909C12.8152 10.9466 13.0501 10.9127 13.2476 10.7964ZM29.1317 18.7504C29.0976 16.6496 28.4751 14.601 27.3356 12.8395C27.209 12.6442 27.0103 12.5075 26.7833 12.4593C26.5564 12.4112 26.3197 12.4557 26.1253 12.5829C25.9309 12.7102 25.7948 12.9098 25.747 13.1379C25.6991 13.366 25.7433 13.6039 25.8699 13.7992C26.8291 15.2825 27.3532 17.0072 27.3825 18.7759C27.3985 19.9117 27.2076 21.0408 26.8191 22.1075C26.5803 22.7685 26.2685 23.4006 25.8896 23.9918C25.8273 24.0888 25.7846 24.1971 25.7639 24.3107C25.7433 24.4243 25.7451 24.5408 25.7692 24.6537C25.7934 24.7665 25.8395 24.8735 25.9048 24.9685C25.9701 25.0634 26.0534 25.1445 26.1499 25.2072C26.2464 25.2698 26.3542 25.3127 26.4672 25.3335C26.5802 25.3542 26.6962 25.3524 26.8085 25.3281C26.9208 25.3038 27.0272 25.2575 27.1217 25.1919C27.2162 25.1263 27.2969 25.0426 27.3593 24.9456C28.5413 23.0996 29.1576 20.9453 29.1317 18.7504ZM22.9872 26.8519C22.3903 27.2192 21.7543 27.5184 21.0912 27.7438C19.7231 28.2081 18.2663 28.347 16.8357 28.1495C15.4051 27.952 14.0396 27.4235 12.8467 26.6056C12.7519 26.5404 12.6452 26.4947 12.5328 26.471C12.4204 26.4473 12.3044 26.4461 12.1915 26.4674C12.0787 26.4887 11.9711 26.5322 11.8749 26.5953C11.7787 26.6584 11.6959 26.74 11.631 26.8353C11.5662 26.9306 11.5207 27.0378 11.4971 27.1507C11.4736 27.2637 11.4723 27.3802 11.4936 27.4937C11.5148 27.6071 11.558 27.7152 11.6209 27.8119C11.6837 27.9085 11.7648 27.9918 11.8596 28.0569C13.5867 29.2409 15.6109 29.9118 17.7 29.9928C17.8348 29.9979 17.9695 30.0003 18.104 30C20.1512 29.9949 22.1575 29.4239 23.9033 28.3494C24.0012 28.289 24.0862 28.2098 24.1536 28.1163C24.221 28.0228 24.2694 27.9169 24.2961 27.8046C24.3227 27.6924 24.3271 27.5759 24.309 27.4619C24.2909 27.348 24.2506 27.2387 24.1904 27.1404C24.1303 27.042 24.0514 26.9566 23.9584 26.8888C23.8654 26.8211 23.76 26.7725 23.6483 26.7457C23.5366 26.7189 23.4207 26.7145 23.3073 26.7327C23.1938 26.7509 23.0851 26.7914 22.9872 26.8519ZM21.4376 18.8683C20.0715 18.1658 18.8237 18.1236 17.7223 18.0864C16.6509 18.05 15.8049 18.0213 14.9651 17.4497C14.1655 16.9064 13.5695 15.9751 13.1927 14.6821C13.1605 14.5713 13.1068 14.468 13.0348 14.378C12.9629 14.2881 12.8739 14.2132 12.7732 14.1578C12.6724 14.1024 12.5618 14.0674 12.4476 14.055C12.3334 14.0425 12.2179 14.0528 12.1076 14.0852C11.9974 14.1176 11.8946 14.1715 11.805 14.2438C11.7155 14.3162 11.6411 14.4055 11.5859 14.5068C11.5307 14.608 11.496 14.7192 11.4836 14.834C11.4712 14.9487 11.4814 15.0648 11.5136 15.1756C12.0078 16.8715 12.8391 18.1263 13.9843 18.9056C15.2419 19.7607 16.4732 19.8029 17.6634 19.8428C18.6706 19.8769 19.6224 19.9092 20.6407 20.4332C21.6318 20.9429 22.4645 21.8069 23.1145 23.0008C23.2258 23.2052 23.4135 23.3569 23.6361 23.4223C23.8587 23.4878 24.0981 23.4617 24.3016 23.3498C24.5051 23.2379 24.656 23.0493 24.7211 22.8256C24.7862 22.6019 24.7603 22.3613 24.6489 22.1569C23.8275 20.6485 22.7475 19.5418 21.4376 18.8683ZM17.3304 11.1459L17.2879 15.7144C17.2858 15.9476 17.3759 16.172 17.5384 16.3384C17.7009 16.5048 17.9225 16.5996 18.1545 16.6018H18.163C18.393 16.6011 18.6135 16.5094 18.7767 16.3465C18.9399 16.1836 19.0326 15.9626 19.0349 15.7315L19.0795 11.1625C19.0769 10.9325 18.9847 10.7126 18.8226 10.5501C18.6605 10.3876 18.4415 10.2954 18.2126 10.2933C17.9836 10.2912 17.763 10.3793 17.598 10.5388C17.433 10.6983 17.3372 10.916 17.3304 11.1459ZM18.1415 27.2548C18.3721 27.2546 18.5933 27.1631 18.757 27.0001C18.9208 26.837 19.0139 26.6156 19.0161 26.3839L19.0585 21.815C19.0596 21.6996 19.038 21.5851 18.995 21.4781C18.9521 21.371 18.8885 21.2735 18.8081 21.1912C18.7276 21.1088 18.6318 21.0432 18.5261 20.998C18.4204 20.9529 18.3068 20.9291 18.192 20.928H18.1835C17.953 20.9282 17.7319 21.0197 17.5682 21.1828C17.4045 21.3458 17.3115 21.5672 17.3094 21.7989L17.267 26.3673C17.2658 26.4828 17.2874 26.5973 17.3303 26.7043C17.3732 26.8114 17.4367 26.9089 17.5171 26.9913C17.5975 27.0737 17.6933 27.1394 17.799 27.1846C17.9047 27.2298 18.0182 27.2536 18.1331 27.2548H18.1415ZM18.2398 5.77392C18.4143 5.77401 18.585 5.72206 18.7302 5.62466C18.8754 5.52725 18.9886 5.38876 19.0555 5.2267C19.1224 5.06463 19.1399 4.88628 19.1059 4.7142C19.0719 4.54211 18.9879 4.38403 18.8645 4.25994C18.7411 4.13586 18.5838 4.05134 18.4126 4.01708C18.2413 3.98282 18.0638 4.00035 17.9025 4.06747C17.7412 4.13459 17.6034 4.24828 17.5064 4.39414C17.4094 4.54001 17.3576 4.71152 17.3576 4.88696C17.3576 5.12189 17.4503 5.34722 17.6155 5.5135C17.7806 5.67979 18.0046 5.77344 18.2384 5.77392H18.2398Z" fill="white"/>
<path d="M56.9046 31.492L55.4536 27.126H55.9211L57.2792 31.234H57.0455L58.4489 27.126H58.8667L60.2502 31.234H60.0284L61.3995 27.126H61.8356L60.3852 31.492H59.9058L58.5839 27.5937H58.707L57.3791 31.492H56.9046Z" fill="#E4E4E4"/>
<path d="M63.6963 31.5237C63.3878 31.5305 63.0829 31.4564 62.811 31.3084C62.563 31.1702 62.3575 30.9651 62.2172 30.7157C62.0705 30.4526 61.9959 30.1543 62.0013 29.852C61.9953 29.5518 62.0664 29.2553 62.2075 28.9915C62.3399 28.7466 62.5352 28.5427 62.7727 28.4015C63.0183 28.2565 63.2983 28.1822 63.5824 28.1868C63.8659 28.1813 64.1456 28.2534 64.3921 28.3955C64.6277 28.5346 64.8204 28.7375 64.9486 28.9816C65.0876 29.2497 65.1575 29.5491 65.1516 29.852C65.1516 29.8728 65.1505 29.8947 65.1483 29.9177C65.1483 29.9401 65.1451 29.9642 65.1451 29.9894H62.3382V29.6608H64.9049L64.7332 29.7917C64.7369 29.5711 64.6851 29.3531 64.5826 29.1585C64.4871 28.9794 64.3458 28.8297 64.1735 28.7252C63.9933 28.6193 63.7879 28.5653 63.5797 28.5691C63.3716 28.5663 63.1665 28.6202 62.9859 28.7252C62.8103 28.8285 62.6674 28.9805 62.574 29.1634C62.4732 29.3619 62.4225 29.5827 62.4267 29.8059V29.8744C62.4218 30.1043 62.4777 30.3312 62.5886 30.5317C62.6962 30.7197 62.854 30.8732 63.0437 30.9743C63.2494 31.0832 63.4788 31.138 63.7109 31.1337C63.8993 31.1352 64.0862 31.0991 64.2609 31.0274C64.431 30.9568 64.5817 30.8455 64.7003 30.7031L64.9465 30.9902C64.8013 31.1658 64.616 31.3027 64.4067 31.3889C64.1811 31.4816 63.9396 31.5274 63.6963 31.5237Z" fill="#E4E4E4"/>
<path d="M66.0396 31.4922V26.8638H66.4757V29.1846L66.4142 29.8457L66.4574 30.5068V31.4927L66.0396 31.4922ZM67.7054 31.5234C67.4386 31.5276 67.1756 31.4597 66.9432 31.3268C66.7145 31.1927 66.5288 30.9945 66.4082 30.756C66.2772 30.507 66.2117 30.2056 66.2117 29.8517C66.2117 29.4979 66.2783 29.1953 66.4115 28.9441C66.5344 28.7075 66.7218 28.5116 66.9513 28.3799C67.1822 28.2495 67.4427 28.1829 67.707 28.1866C67.9957 28.1818 68.2806 28.2538 68.5334 28.3953C68.7747 28.5317 68.9738 28.7337 69.1083 28.9786C69.2456 29.2481 69.3172 29.547 69.3172 29.8503C69.3172 30.1537 69.2456 30.4526 69.1083 30.7221C68.9739 30.9686 68.7749 31.1726 68.5334 31.3114C68.2808 31.4553 67.995 31.5284 67.7054 31.5234ZM67.6746 31.1307C67.8899 31.1343 68.1022 31.0793 68.2894 30.9713C68.4712 30.8645 68.6206 30.7092 68.7213 30.5221C68.8263 30.3141 68.881 30.0838 68.881 29.8501C68.881 29.6164 68.8263 29.386 68.7213 29.178C68.6197 28.9925 68.4705 28.8384 68.2894 28.7321C68.1022 28.6243 67.8899 28.5695 67.6746 28.5733C67.4583 28.5697 67.245 28.6245 67.0565 28.7321C66.8745 28.8371 66.725 28.9915 66.6247 29.178C66.5218 29.3866 66.4682 29.6167 66.4682 29.8501C66.4682 30.0834 66.5218 30.3135 66.6247 30.5221C66.7241 30.7101 66.8738 30.8658 67.0565 30.9713C67.245 31.0791 67.4583 31.1341 67.6746 31.1307Z" fill="#E4E4E4"/>
<path d="M71.0732 31.5235C70.817 31.525 70.562 31.486 70.3175 31.4079C70.1143 31.3491 69.9244 31.2507 69.7583 31.1182L69.9553 30.7687C70.1093 30.8805 70.2791 30.9679 70.459 31.0278C70.6672 31.1013 70.8862 31.1384 71.1067 31.1373C71.4144 31.1373 71.6352 31.0886 71.7707 30.9905C71.8342 30.9484 71.8862 30.8906 71.9217 30.8224C71.9572 30.7543 71.9751 30.6782 71.9736 30.6011C71.9763 30.5481 71.9676 30.4952 71.9479 30.4461C71.9282 30.397 71.8981 30.3528 71.8597 30.3168C71.7734 30.2426 71.6715 30.1893 71.5618 30.1613C71.4263 30.1229 71.2888 30.0927 71.1499 30.0709C70.998 30.0457 70.8474 30.0165 70.6981 29.9832C70.5561 29.9529 70.4188 29.9037 70.2895 29.837C70.1697 29.7753 70.0671 29.6842 69.9909 29.5719C69.9094 29.4372 69.8699 29.2806 69.8776 29.1227C69.8754 28.9508 69.927 28.7827 70.025 28.6424C70.1348 28.4918 70.2845 28.3761 70.4568 28.3088C70.6791 28.222 70.9161 28.1806 71.1542 28.1872C71.366 28.1876 71.5768 28.2157 71.7815 28.271C71.9642 28.316 72.1385 28.3909 72.2975 28.4928L72.107 28.8483C71.967 28.7496 71.8109 28.6767 71.646 28.6331C71.4855 28.5897 71.3202 28.5676 71.1542 28.5673C70.8631 28.5673 70.649 28.6183 70.5119 28.7202C70.4483 28.7627 70.3962 28.8206 70.3603 28.8887C70.3244 28.9568 70.3058 29.0329 70.3062 29.1101C70.3033 29.1644 70.3119 29.2186 70.3314 29.2692C70.351 29.3198 70.381 29.3655 70.4196 29.4032C70.5068 29.4797 70.6097 29.5358 70.7208 29.5675C70.8557 29.6093 70.9933 29.6416 71.1326 29.6639C71.282 29.6891 71.4317 29.7194 71.5817 29.7548C71.7236 29.7875 71.8617 29.8355 71.9936 29.8978C72.1142 29.955 72.2181 30.0432 72.2948 30.1536C72.3755 30.283 72.4151 30.4344 72.4082 30.5874C72.4118 30.7649 72.3567 30.9385 72.2516 31.0804C72.1332 31.2299 71.9754 31.3424 71.7966 31.4046C71.5646 31.4886 71.3195 31.5289 71.0732 31.5235Z" fill="#E4E4E4"/>
<path d="M73.4281 27.494C73.3859 27.495 73.3439 27.4872 73.3048 27.4711C73.2657 27.455 73.2302 27.4309 73.2006 27.4003C73.1711 27.3712 73.1478 27.3362 73.132 27.2976C73.1163 27.259 73.1084 27.2176 73.1089 27.1758C73.1086 27.1348 73.1165 27.0942 73.1323 27.0565C73.1481 27.0188 73.1713 26.9848 73.2006 26.9567C73.2308 26.9271 73.2664 26.9039 73.3055 26.8884C73.3445 26.8728 73.3862 26.8653 73.4281 26.8663C73.5121 26.8645 73.5935 26.8959 73.6551 26.9539C73.6851 26.9815 73.7089 27.0154 73.7248 27.0532C73.7407 27.091 73.7484 27.1319 73.7473 27.173C73.7484 27.2156 73.741 27.258 73.7258 27.2977C73.7105 27.3374 73.6876 27.3736 73.6584 27.4042C73.6282 27.4345 73.5922 27.4582 73.5525 27.4737C73.5129 27.4891 73.4705 27.4961 73.4281 27.494ZM73.207 31.4925V28.217H73.6427V31.492L73.207 31.4925Z" fill="#E4E4E4"/>
<path d="M74.3555 28.5852V28.2172H76.3527V28.5852H74.3555ZM75.8799 31.5233C75.5772 31.5233 75.3433 31.4401 75.1781 31.2736C75.0129 31.1071 74.9311 30.8723 74.9325 30.5692V27.4941H75.3687V30.544C75.3687 30.7353 75.4169 30.883 75.5133 30.9871C75.6098 31.0912 75.7481 31.143 75.9284 31.1427C76.1032 31.1489 76.2741 31.089 76.4078 30.9745L76.5611 31.2927C76.4717 31.3736 76.3657 31.4331 76.2507 31.4669C76.1306 31.5045 76.0056 31.5235 75.8799 31.5233Z" fill="#E4E4E4"/>
<path d="M78.6099 31.5237C78.3014 31.5306 77.9964 31.4564 77.7246 31.3084C77.4768 31.17 77.2713 30.9649 77.1308 30.7157C76.984 30.4526 76.9095 30.1543 76.9149 29.852C76.909 29.5519 76.9798 29.2554 77.1206 28.9914C77.2532 28.7466 77.4486 28.5427 77.6863 28.4015C77.9318 28.2564 78.2118 28.1822 78.496 28.1868C78.7794 28.1813 79.0591 28.2534 79.3056 28.3955C79.5411 28.5346 79.7336 28.7376 79.8616 28.9816C80.0009 29.2496 80.0708 29.5491 80.0646 29.852C80.0646 29.8728 80.0635 29.8947 80.0614 29.9177C80.0614 29.9401 80.0614 29.9642 80.0614 29.9894H77.2544V29.6608H79.8298L79.6576 29.7917C79.6616 29.571 79.6097 29.353 79.507 29.1585C79.4118 28.9793 79.2706 28.8296 79.0984 28.7252C78.9182 28.6193 78.7128 28.5653 78.5046 28.5691C78.2965 28.5662 78.0914 28.6202 77.9108 28.7252C77.7352 28.8285 77.5923 28.9805 77.499 29.1634C77.3977 29.3618 77.3468 29.5826 77.3511 29.8059V29.8744C77.3462 30.1043 77.4021 30.3312 77.513 30.5317C77.6204 30.7199 77.7782 30.8734 77.968 30.9743C78.1736 31.0833 78.4028 31.1381 78.6347 31.1337C78.8233 31.1352 79.0104 31.0991 79.1853 31.0274C79.3553 30.9568 79.5061 30.8455 79.6247 30.7031L79.8579 30.9869C79.7127 31.1625 79.5273 31.2994 79.3181 31.3856C79.0934 31.4791 78.8526 31.526 78.6099 31.5237Z" fill="#E4E4E4"/>
<path d="M83.6996 31.5296C83.4448 31.5344 83.1918 31.4867 82.9557 31.3894C82.7537 31.3077 82.5766 31.1731 82.4424 30.9994C82.317 30.8331 82.2508 30.6287 82.2545 30.4194C82.2527 30.2402 82.295 30.0634 82.3776 29.905C82.4788 29.7263 82.6136 29.5694 82.7744 29.4433C83.0019 29.2615 83.2457 29.1018 83.5025 28.9662C83.7111 28.8517 83.9133 28.7257 84.1082 28.5888C84.2292 28.507 84.3344 28.4034 84.4186 28.2832C84.479 28.1896 84.511 28.0801 84.5109 27.9682C84.5137 27.8947 84.5006 27.8214 84.4727 27.7534C84.4447 27.6855 84.4025 27.6246 84.3489 27.5749C84.241 27.4752 84.0862 27.4254 83.8847 27.4254C83.6688 27.4254 83.5007 27.4802 83.3806 27.5897C83.3221 27.6436 83.2759 27.7097 83.2451 27.7834C83.2144 27.8572 83.1998 27.9369 83.2024 28.017C83.2022 28.1019 83.2157 28.1863 83.2424 28.2667C83.2785 28.3623 83.3305 28.4509 83.3962 28.5285C83.4718 28.6246 83.5772 28.7451 83.7125 28.8901L85.9872 31.2667L85.7351 31.5598L83.36 29.0834C83.2388 28.9562 83.1249 28.8219 83.0189 28.6814C82.9431 28.5824 82.884 28.4713 82.844 28.3527C82.8109 28.2464 82.7944 28.1355 82.7949 28.0241C82.7889 27.852 82.8344 27.6821 82.9254 27.5368C83.0165 27.3915 83.1488 27.2776 83.305 27.2101C83.487 27.1297 83.6841 27.0904 83.8826 27.0951C84.0631 27.0908 84.2424 27.1259 84.4083 27.1981C84.5508 27.2605 84.6725 27.3634 84.7587 27.4944C84.8455 27.6342 84.8893 27.797 84.8844 27.9622C84.8852 28.1172 84.8461 28.2697 84.7711 28.4048C84.6757 28.5634 84.5491 28.7005 84.3991 28.8073C84.1757 28.97 83.9412 29.1164 83.6974 29.2455C83.4834 29.3621 83.2787 29.4956 83.0853 29.6448C82.9592 29.7417 82.853 29.8626 82.7727 30.0009C82.7108 30.1167 82.6791 30.2466 82.6804 30.3783C82.6778 30.5276 82.7244 30.6735 82.8127 30.7929C82.9085 30.9168 83.036 31.0116 83.1814 31.0668C83.3549 31.1342 83.5397 31.1669 83.7255 31.1632C83.9924 31.1679 84.2564 31.1058 84.4942 30.9824C84.7278 30.8538 84.9239 30.6648 85.0626 30.4347C85.2302 30.1498 85.3434 29.8354 85.3962 29.5079L85.7465 29.6202C85.685 29.9935 85.5489 30.3501 85.3465 30.668C85.1703 30.9393 84.9287 31.1605 84.6448 31.3105C84.3517 31.4597 84.0274 31.5349 83.6996 31.5296Z" fill="#E4E4E4"/>
<path d="M87.6885 31.492L89.6555 27.126H90.1046L92.0716 31.492H91.5917L89.7845 27.3938H89.9691L88.1619 31.492H87.6885ZM88.4631 30.3259L88.5986 29.9512H91.1L91.2355 30.3259H88.4631Z" fill="#E4E4E4"/>
<path d="M92.6914 32.7023V28.2174H93.1092V29.2034L93.066 29.8579L93.1276 30.5196V32.7023H92.6914ZM94.3572 31.5236C94.0926 31.5271 93.8318 31.4593 93.6015 31.327C93.3722 31.1935 93.185 30.9967 93.0617 30.7595C92.9282 30.5119 92.8616 30.2094 92.862 29.8519C92.8623 29.4944 92.9278 29.1919 93.0585 28.9443C93.1794 28.7078 93.3652 28.5118 93.5934 28.3801C93.8264 28.249 94.0892 28.1823 94.3556 28.1867C94.6443 28.182 94.9292 28.2539 95.182 28.3954C95.4239 28.5325 95.623 28.7355 95.7569 28.9815C95.8942 29.251 95.9658 29.5499 95.9658 29.8533C95.9658 30.1566 95.8942 30.4555 95.7569 30.725C95.6219 30.9703 95.423 31.1732 95.182 31.3116C94.9303 31.4549 94.6458 31.528 94.3572 31.5236ZM94.3264 31.1309C94.5418 31.1345 94.7541 31.0795 94.9413 30.9715C95.123 30.8647 95.2724 30.7093 95.3731 30.5223C95.4833 30.3168 95.5391 30.0858 95.535 29.8519C95.5394 29.619 95.4836 29.389 95.3731 29.1847C95.2707 28.9956 95.1191 28.8386 94.9348 28.7308C94.7506 28.623 94.5407 28.5686 94.3281 28.5735C94.1112 28.5705 93.8976 28.6273 93.71 28.7378C93.5281 28.8444 93.3787 28.9998 93.2782 29.1869C93.1705 29.392 93.1166 29.6218 93.1216 29.8541C93.1169 30.0874 93.1708 30.3181 93.2782 30.5245C93.3776 30.7125 93.5273 30.8682 93.71 30.9737C93.8982 31.0804 94.1109 31.1347 94.3264 31.1309Z" fill="#E4E4E4"/>
<path d="M96.8608 32.7023V28.2174H97.2786V29.2034L97.2355 29.8579L97.297 30.5196V32.7023H96.8608ZM98.5266 31.5236C98.262 31.5271 98.0012 31.4593 97.7709 31.327C97.5417 31.1935 97.3545 30.9967 97.2311 30.7595C97.098 30.5119 97.0314 30.2094 97.0314 29.8519C97.0314 29.4944 97.0969 29.1919 97.2279 28.9443C97.3488 28.7078 97.5346 28.5118 97.7628 28.3801C97.9958 28.249 98.2587 28.1823 98.525 28.1867C98.8137 28.182 99.0986 28.2539 99.3515 28.3954C99.5933 28.5325 99.7924 28.7355 99.9263 28.9815C100.064 29.251 100.135 29.5499 100.135 29.8533C100.135 30.1566 100.064 30.4555 99.9263 30.725C99.7913 30.9703 99.5924 31.1732 99.3515 31.3116C99.0995 31.4551 98.8145 31.5282 98.5256 31.5236H98.5266ZM98.4959 31.1309C98.7112 31.1345 98.9235 31.0795 99.1107 30.9715C99.2925 30.8647 99.4419 30.7093 99.5425 30.5223C99.6527 30.3168 99.7085 30.0858 99.7045 29.8519C99.7088 29.619 99.653 29.389 99.5425 29.1847C99.4401 28.9956 99.2885 28.8386 99.1043 28.7308C98.92 28.623 98.7101 28.5686 98.4975 28.5735C98.2806 28.5705 98.067 28.6273 97.8794 28.7378C97.6975 28.8444 97.5481 28.9998 97.4476 29.1869C97.34 29.392 97.286 29.6218 97.2911 29.8541C97.2863 30.0874 97.3402 30.3181 97.4476 30.5245C97.547 30.7125 97.6967 30.8682 97.8794 30.9737C98.0673 31.0803 98.2796 31.1345 98.4948 31.1309H98.4959Z" fill="#E4E4E4"/>
<path d="M102.731 31.4922V27.1261H104.483C104.902 27.1169 105.316 27.212 105.691 27.4033C106.026 27.578 106.307 27.845 106.5 28.1739C106.69 28.5214 106.789 28.912 106.789 29.3091C106.789 29.7062 106.69 30.0968 106.5 30.4443C106.307 30.7732 106.027 31.0401 105.691 31.2145C105.344 31.3996 104.941 31.4922 104.483 31.4922H102.731ZM103.186 31.0929H104.458C104.803 31.1016 105.144 31.0235 105.451 30.8655C105.723 30.7218 105.95 30.5034 106.106 30.2351C106.259 29.9506 106.339 29.6316 106.339 29.3075C106.339 28.9834 106.259 28.6644 106.106 28.3799C105.949 28.1139 105.722 27.8974 105.451 27.7549C105.144 27.5968 104.803 27.5185 104.458 27.5271H103.186V31.0929Z" fill="#E4E4E4"/>
<path d="M109.086 31.5237C108.778 31.5305 108.473 31.4564 108.201 31.3084C107.953 31.17 107.748 30.9649 107.607 30.7157C107.461 30.4526 107.386 30.1543 107.391 29.852C107.386 29.5519 107.456 29.2554 107.597 28.9914C107.73 28.7466 107.925 28.5427 108.163 28.4015C108.408 28.2564 108.688 28.1822 108.973 28.1868C109.256 28.1813 109.536 28.2534 109.782 28.3955C110.018 28.5346 110.21 28.7376 110.338 28.9816C110.477 29.2496 110.547 29.5491 110.541 29.852C110.541 29.8728 110.54 29.8947 110.538 29.9177C110.538 29.9401 110.535 29.9642 110.535 29.9894H107.728V29.6608H110.304L110.131 29.7917C110.135 29.571 110.084 29.353 109.981 29.1585C109.886 28.9793 109.744 28.8296 109.572 28.7252C109.391 28.6188 109.185 28.5648 108.976 28.5691C108.768 28.5662 108.563 28.6202 108.382 28.7252C108.206 28.8285 108.063 28.9805 107.97 29.1634C107.869 29.3619 107.818 29.5826 107.822 29.8059V29.8744C107.817 30.1043 107.873 30.3312 107.984 30.5317C108.092 30.7199 108.249 30.8734 108.439 30.9743C108.645 31.0833 108.874 31.1381 109.106 31.1337C109.295 31.1352 109.482 31.0991 109.656 31.0274C109.826 30.9568 109.977 30.8455 110.096 30.7031L110.341 30.9902C110.196 31.166 110.011 31.3029 109.802 31.3889C109.575 31.4822 109.331 31.528 109.086 31.5237Z" fill="#E4E4E4"/>
<path d="M112.198 31.4922L110.766 28.2173H111.221L112.536 31.2551H112.32L113.654 28.2173H114.086L112.647 31.4922H112.198Z" fill="#E4E4E4"/>
<path d="M115.978 31.5237C115.67 31.5305 115.365 31.4564 115.093 31.3084C114.845 31.17 114.64 30.9649 114.499 30.7157C114.353 30.4526 114.278 30.1543 114.284 29.852C114.278 29.5518 114.349 29.2553 114.49 28.9914C114.622 28.7467 114.816 28.5429 115.053 28.4015C115.299 28.2564 115.579 28.1822 115.863 28.1868C116.146 28.1813 116.426 28.2534 116.673 28.3955C116.908 28.5346 117.101 28.7376 117.229 28.9816C117.368 29.2496 117.438 29.5491 117.432 29.852C117.432 29.8728 117.431 29.8947 117.428 29.9177C117.428 29.9401 117.428 29.9642 117.428 29.9894H114.619V29.6608H117.195L117.022 29.7917C117.026 29.571 116.975 29.353 116.872 29.1585C116.777 28.9793 116.636 28.8296 116.463 28.7252C116.282 28.6189 116.076 28.5649 115.867 28.5691C115.659 28.5664 115.454 28.6203 115.273 28.7252C115.098 28.8288 114.955 28.9808 114.861 29.1634C114.76 29.3619 114.71 29.5827 114.714 29.8059V29.8744C114.709 30.1043 114.765 30.3312 114.876 30.5317C114.983 30.7199 115.141 30.8734 115.331 30.9743C115.536 31.0833 115.766 31.1381 115.997 31.1337C116.186 31.1352 116.373 31.0991 116.547 31.0274C116.718 30.9568 116.869 30.8456 116.987 30.7031L117.233 30.9902C117.088 31.1658 116.902 31.3027 116.693 31.3889C116.466 31.4822 116.223 31.528 115.978 31.5237Z" fill="#E4E4E4"/>
<path d="M118.319 31.4922V26.8638H118.755V31.4922H118.319Z" fill="#E4E4E4"/>
<path d="M121.289 31.5233C120.994 31.5286 120.704 31.4543 120.447 31.308C120.203 31.1663 120.001 30.9607 119.863 30.7126C119.722 30.4471 119.648 30.1502 119.648 29.8485C119.648 29.5469 119.722 29.25 119.863 28.9845C120.002 28.7395 120.204 28.5371 120.447 28.3984C120.708 28.2583 120.999 28.1851 121.294 28.1851C121.589 28.1851 121.88 28.2583 122.141 28.3984C122.384 28.537 122.585 28.7397 122.724 28.985C122.87 29.2486 122.943 29.5468 122.936 29.8488C122.942 30.1507 122.869 30.4487 122.724 30.7126C122.586 30.9613 122.383 31.1664 122.138 31.3053C121.878 31.4522 121.586 31.5274 121.289 31.5233ZM121.289 31.1305C121.506 31.1347 121.721 31.0797 121.91 30.9711C122.091 30.8646 122.239 30.7091 122.337 30.522C122.44 30.3134 122.494 30.0832 122.494 29.8499C122.494 29.6166 122.44 29.3865 122.337 29.1778C122.238 28.9923 122.09 28.838 121.91 28.732C121.722 28.6278 121.51 28.5731 121.295 28.5731C121.081 28.5731 120.869 28.6278 120.681 28.732C120.499 28.8381 120.35 28.9922 120.249 29.1778C120.144 29.3858 120.089 29.6162 120.089 29.8499C120.089 30.0836 120.144 30.314 120.249 30.522C120.348 30.7083 120.496 30.8635 120.676 30.9711C120.862 31.0796 121.074 31.1347 121.289 31.1305Z" fill="#E4E4E4"/>
<path d="M123.826 32.7023V28.2174H124.244V29.2033L124.201 29.8579L124.262 30.5196V32.7023H123.826ZM125.492 31.5236C125.227 31.5271 124.967 31.4593 124.736 31.3269C124.507 31.1933 124.32 30.9965 124.197 30.7595C124.064 30.5119 123.997 30.2094 123.997 29.8519C123.996 29.4944 124.062 29.1918 124.194 28.9443C124.315 28.7079 124.5 28.512 124.728 28.3801C124.961 28.2491 125.224 28.1824 125.491 28.1867C125.78 28.1821 126.065 28.254 126.317 28.3954C126.559 28.5325 126.758 28.7355 126.892 28.9815C127.03 29.251 127.101 29.5499 127.101 29.8532C127.101 30.1566 127.03 30.4555 126.892 30.725C126.757 30.9703 126.558 31.1732 126.317 31.3116C126.066 31.4549 125.781 31.528 125.492 31.5236ZM125.461 31.1309C125.676 31.1346 125.889 31.0795 126.076 30.9715C126.257 30.8647 126.407 30.7093 126.507 30.5223C126.618 30.3168 126.673 30.0858 126.669 29.8519C126.674 29.619 126.618 29.3889 126.507 29.1847C126.405 28.9957 126.253 28.8388 126.069 28.7311C125.885 28.6233 125.675 28.5688 125.462 28.5734C125.245 28.5705 125.032 28.6272 124.844 28.7378C124.662 28.8443 124.513 28.9998 124.412 29.1869C124.305 29.3919 124.251 29.6217 124.256 29.8541C124.251 30.0874 124.305 30.3182 124.412 30.5245C124.512 30.7125 124.662 30.8682 124.844 30.9737C125.033 31.0806 125.246 31.1348 125.461 31.1309Z" fill="#E4E4E4"/>
<path d="M132.028 28.1867C132.265 28.181 132.5 28.2334 132.713 28.3395C132.909 28.4423 133.068 28.6048 133.168 28.804C133.276 29.0121 133.33 29.2741 133.33 29.59V31.4923H132.893V29.6333C132.893 29.2882 132.812 29.0273 132.65 28.8505C132.489 28.6738 132.26 28.5854 131.965 28.5854C131.764 28.5803 131.566 28.6288 131.39 28.7262C131.228 28.82 131.097 28.9612 131.015 29.1315C130.922 29.3311 130.877 29.5501 130.883 29.7707V31.4923H130.446V29.6333C130.446 29.2882 130.365 29.0273 130.201 28.8505C130.037 28.6738 129.808 28.5854 129.512 28.5854C129.313 28.5811 129.116 28.6296 128.94 28.7262C128.777 28.8189 128.645 28.9604 128.563 29.1315C128.469 29.331 128.424 29.5501 128.43 29.7707V31.4923H127.994V28.2173H128.412V29.1036L128.344 28.9475C128.439 28.7141 128.607 28.5183 128.821 28.3893C129.056 28.2497 129.326 28.1795 129.598 28.1867C129.885 28.1778 130.167 28.2619 130.403 28.4266C130.625 28.5865 130.769 28.8266 130.835 29.1469L130.663 29.0784C130.757 28.8135 130.933 28.5867 131.164 28.4326C131.421 28.2639 131.722 28.1782 132.028 28.1867Z" fill="#E4E4E4"/>
<path d="M135.889 31.5234C135.58 31.5302 135.275 31.456 135.003 31.3081C134.756 31.1698 134.55 30.9647 134.41 30.7155C134.263 30.4523 134.188 30.154 134.194 29.8517C134.188 29.5516 134.259 29.255 134.4 28.9912C134.532 28.7463 134.728 28.5425 134.965 28.4013C135.212 28.2615 135.49 28.1876 135.773 28.1865C136.055 28.1855 136.334 28.2573 136.582 28.3952C136.817 28.5343 137.01 28.7373 137.138 28.9813C137.277 29.2494 137.347 29.5488 137.341 29.8517C137.341 29.8725 137.34 29.8944 137.338 29.9174C137.338 29.9399 137.335 29.964 137.335 29.9892H134.528V29.6605H137.104L136.932 29.7914C136.936 29.5708 136.884 29.3528 136.781 29.1583C136.686 28.979 136.544 28.8293 136.372 28.725C136.192 28.6189 135.986 28.5649 135.778 28.5689C135.569 28.5657 135.363 28.6196 135.182 28.725C135.006 28.8284 134.863 28.9804 134.77 29.1632C134.669 29.3616 134.618 29.5824 134.622 29.8057V29.8742C134.617 30.104 134.673 30.331 134.784 30.5314C134.892 30.7195 135.049 30.8729 135.239 30.974C135.445 31.0829 135.674 31.1377 135.906 31.1334C136.094 31.1349 136.281 31.0988 136.456 31.0272C136.626 30.9567 136.777 30.8454 136.895 30.7029L137.142 30.9899C136.996 31.1656 136.811 31.3025 136.602 31.3887C136.375 31.4817 136.133 31.5276 135.889 31.5234Z" fill="#E4E4E4"/>
<path d="M139.876 28.1866C140.115 28.1813 140.352 28.2337 140.567 28.3394C140.767 28.4416 140.93 28.6038 141.034 28.8039C141.147 29.0121 141.204 29.2741 141.204 29.5899V31.4922H140.767V29.6332C140.767 29.2881 140.682 29.0272 140.512 28.8505C140.342 28.6737 140.103 28.5854 139.796 28.5854C139.588 28.5804 139.382 28.6288 139.197 28.7261C139.028 28.8176 138.891 28.959 138.803 29.1315C138.706 29.3298 138.659 29.5493 138.665 29.7707V31.4922H138.229V28.2173H138.646V29.1156L138.579 28.9474C138.679 28.7125 138.852 28.5167 139.071 28.3893C139.316 28.2489 139.594 28.1789 139.876 28.1866Z" fill="#E4E4E4"/>
<path d="M141.879 28.5852V28.2172H143.877V28.5852H141.879ZM143.404 31.5233C143.101 31.5233 142.867 31.4401 142.702 31.2736C142.537 31.1071 142.455 30.8723 142.456 30.5692V27.4941H142.893V30.544C142.893 30.7353 142.941 30.883 143.037 30.9871C143.134 31.0912 143.272 31.143 143.452 31.1427C143.627 31.1489 143.798 31.089 143.932 30.9745L144.085 31.2927C143.996 31.3736 143.89 31.4331 143.775 31.4669C143.655 31.5044 143.53 31.5234 143.404 31.5233H143.404Z" fill="#E4E4E4"/>
<path d="M67.1741 11.0254C67.1761 12.7402 66.5846 14.3963 65.5116 15.6807C64.4385 16.9651 62.9582 17.7888 61.3505 17.9961L61.3189 18H55.1616V9.05575H57.9701V15.0291H61.1305C61.8977 14.901 62.61 14.5293 63.1733 13.9632C63.7366 13.3971 64.1242 12.6632 64.2848 11.8587C64.3385 11.5835 64.3656 11.3032 64.3656 11.0222C64.3666 10.396 64.2298 9.77822 63.9661 9.21775C63.7024 8.65728 63.3189 8.16957 62.8462 7.79326C62.3916 7.42687 61.8648 7.17391 61.3049 7.05327C61.1123 7.01238 60.9171 6.987 60.7209 6.97734H55.1622V4L61.0472 4.02316C62.7144 4.15691 64.2723 4.95282 65.4087 6.25138C66.545 7.54993 67.1758 9.2552 67.1747 11.0254H67.1741Z" fill="#E4E4E4"/>
<path d="M82.19 4V6.97362H69.1758V4H82.19ZM72.27 15.0264H82.19V18H69.1758V9.02703L72.2693 9.04569H80.8912V12.0193H72.27V15.0264Z" fill="#E4E4E4"/>
<path d="M95.2044 4.07603V18H94.5135L92.4759 15.9158L89.0547 12.4171L87.0789 10.3956L84.1924 7.44377V4H84.9082L92.3173 11.5782V4.07603H95.2044ZM84.1924 10.3547L87.0789 13.3065V17.9815H84.1924V10.3547Z" fill="#E4E4E4"/>
<path d="M100.211 4V18H97.2075V4H100.211Z" fill="#E4E4E4"/>
<path d="M114.225 4V6.97362H102.212V4H114.225ZM105.068 15.0264H114.225V18H102.212V9.02703L105.067 9.04569H113.026V12.0193H105.068V15.0264Z" fill="#E4E4E4"/>
<path d="M127.24 15.0476V18H116.228V4H119.167V15.0476H127.24Z" fill="#E4E4E4"/>
<path d="M149.666 11.6536C150.013 12.299 150.195 13.0296 150.192 13.7725C150.189 14.5153 150.002 15.2444 149.65 15.8868C149.297 16.5292 148.792 17.0625 148.184 17.4333C147.576 17.8041 146.886 17.9995 146.184 18H142.209C141.706 18.0007 141.208 17.8963 140.743 17.693C140.278 17.4896 139.856 17.1912 139.501 16.8148C139.145 16.4384 138.863 15.9915 138.671 15.4996C138.479 15.0077 138.38 14.4805 138.381 13.9483H141.13C141.13 14.1862 141.201 14.4183 141.331 14.6119C141.462 14.8055 141.647 14.951 141.859 15.0281H146.184C146.344 15.0319 146.503 15.0019 146.652 14.9397C146.801 14.8776 146.936 14.7846 147.051 14.6662C147.165 14.5479 147.256 14.4065 147.318 14.2505C147.38 14.0945 147.412 13.9269 147.412 13.7576C147.412 13.5883 147.38 13.4207 147.318 13.2647C147.256 13.1086 147.165 12.9673 147.051 12.8489C146.936 12.7306 146.801 12.6376 146.652 12.5755C146.503 12.5133 146.344 12.4833 146.184 12.4871H142.391C141.854 12.5056 141.318 12.4096 140.817 12.2047C140.315 11.9999 139.858 11.6903 139.471 11.2946C139.085 10.8988 138.778 10.4248 138.568 9.9009C138.359 9.37696 138.25 8.81372 138.25 8.24467C138.25 7.67561 138.359 7.11237 138.568 6.58843C138.778 6.06448 139.085 5.59053 139.471 5.19476C139.858 4.79898 140.315 4.48946 140.817 4.2846C141.318 4.07974 141.854 3.98372 142.391 4.00225H146.436C147.451 4.00225 148.425 4.42913 149.143 5.18897C149.86 5.94882 150.264 6.97939 150.264 8.05398H147.514C147.514 7.81607 147.444 7.58419 147.313 7.39064C147.182 7.19709 146.998 7.0515 146.785 6.97416H142.391C142.077 6.98163 141.779 7.11877 141.56 7.35622C141.34 7.59367 141.217 7.91257 141.217 8.24467C141.217 8.57676 141.34 8.89566 141.56 9.13311C141.779 9.37056 142.077 9.5077 142.391 9.51517H146.186C146.893 9.51683 147.586 9.71534 148.197 10.0907C148.808 10.4661 149.314 11.0051 149.666 11.6536Z" fill="#E4E4E4"/>
<path d="M165.281 11C165.281 12.3845 164.87 13.7379 164.1 14.8891C163.33 16.0402 162.235 16.9374 160.955 17.4672C159.674 17.997 158.265 18.1356 156.906 17.8654C155.547 17.5953 154.298 16.9285 153.318 15.9495C152.338 14.9705 151.671 13.7231 151.4 12.3652C151.13 11.0073 151.269 9.59984 151.799 8.32077C152.33 7.0417 153.228 5.94849 154.381 5.1794C155.533 4.41031 156.888 3.99987 158.274 4C160.132 4.00222 161.913 4.74045 163.226 6.05275C164.54 7.36504 165.279 9.14422 165.281 11ZM158.274 6.92178C157.466 6.92165 156.677 7.16073 156.006 7.60877C155.334 8.05681 154.811 8.6937 154.502 9.43888C154.192 10.1841 154.112 11.0041 154.269 11.7952C154.426 12.5864 154.815 13.3131 155.386 13.8835C155.957 14.4539 156.685 14.8424 157.477 14.9998C158.269 15.1572 159.089 15.0765 159.836 14.7678C160.582 14.4592 161.219 13.9365 161.668 13.2658C162.116 12.5951 162.356 11.8066 162.356 11C162.354 9.91931 161.923 8.88346 161.158 8.11948C160.393 7.3555 159.356 6.92573 158.274 6.92436V6.92178Z" fill="#E4E4E4"/>
<path d="M178.295 4.07603V18H177.608L175.567 15.9158L172.146 12.4171L170.17 10.3956L167.283 7.44377V4H167.999L175.408 11.5782V4.07603H178.295ZM167.283 10.3547L170.17 13.3078V17.9827H167.283V10.3547Z" fill="#E4E4E4"/>
<path d="M183.3 4V18H180.296V4H183.3Z" fill="#E4E4E4"/>
<path d="M196.72 11.6536C197.067 12.2988 197.249 13.0292 197.246 13.7718C197.243 14.5145 197.056 15.2433 196.704 15.8857C196.352 16.528 195.847 17.0613 195.239 17.4323C194.631 17.8033 193.942 17.9991 193.241 18H189.265C188.762 18.0007 188.264 17.8963 187.799 17.693C187.334 17.4896 186.912 17.1912 186.557 16.8148C186.201 16.4384 185.919 15.9915 185.727 15.4996C185.535 15.0077 185.436 14.4805 185.437 13.9483H188.186C188.186 14.1862 188.257 14.4183 188.387 14.6119C188.518 14.8055 188.703 14.951 188.915 15.0281H193.241C193.401 15.0319 193.56 15.0019 193.708 14.9397C193.857 14.8776 193.993 14.7846 194.107 14.6662C194.221 14.5479 194.312 14.4065 194.374 14.2505C194.436 14.0945 194.468 13.9269 194.468 13.7576C194.468 13.5883 194.436 13.4207 194.374 13.2647C194.312 13.1086 194.221 12.9673 194.107 12.8489C193.993 12.7306 193.857 12.6376 193.708 12.5755C193.56 12.5133 193.401 12.4833 193.241 12.4871H189.443C188.906 12.5056 188.371 12.4096 187.869 12.2047C187.368 11.9999 186.91 11.6903 186.524 11.2946C186.138 10.8988 185.83 10.4248 185.621 9.9009C185.411 9.37696 185.303 8.81372 185.303 8.24467C185.303 7.67561 185.411 7.11237 185.621 6.58843C185.83 6.06448 186.138 5.59053 186.524 5.19476C186.91 4.79898 187.368 4.48946 187.869 4.2846C188.371 4.07974 188.906 3.98372 189.443 4.00225H193.488C193.991 4.00157 194.489 4.10591 194.954 4.30929C195.418 4.51267 195.841 4.81109 196.196 5.18746C196.552 5.56384 196.834 6.01076 197.026 6.50265C197.218 6.99453 197.316 7.52171 197.316 8.05398H194.567C194.567 7.81607 194.496 7.58419 194.366 7.39064C194.235 7.19709 194.051 7.0515 193.838 6.97416H189.443C189.13 6.98163 188.831 7.11877 188.612 7.35622C188.393 7.59367 188.27 7.91257 188.27 8.24467C188.27 8.57676 188.393 8.89566 188.612 9.13311C188.831 9.37056 189.13 9.5077 189.443 9.51517H193.241C193.947 9.51675 194.64 9.71523 195.251 10.0906C195.862 10.466 196.368 11.0051 196.72 11.6536Z" fill="#E4E4E4"/>
</svg>
