<svg viewBox="0 0 24 24"  xmlns="http://www.w3.org/2000/svg" style="display:none">

	<symbol viewBox="0 0 13 13" id="close">
		<path d="M1.32803 0.000101145L12.399 11.0711L11.0705 12.3996L-0.000488281 1.32862L1.32803 0.000101145Z"/>
		<path d="M1.32803 12.3995L12.399 1.32852L11.0705 0L-0.000488281 11.071L1.32803 12.3995Z"/>
	</symbol>

	<symbol viewBox="0 0 9 6" id="drop-down-arrow">
		<path fill-rule="evenodd" clip-rule="evenodd" d="M0.426758 1.32957L1.17898 0.670654L4.30669 4.24128L7.43441 0.670654L8.18663 1.32957L4.30669 5.75894L0.426758 1.32957Z"/>
	</symbol>

	<symbol viewBox="0 0 13 12" id="login">
		<path fill-rule="evenodd" clip-rule="evenodd" d="M5.34615 5.33333L3.65363 3.64267L4.59733 2.7L7.90094 6L4.59733 9.3L3.65363 8.35733L5.34615 6.66667H0.950684V5.33333H5.34615ZM6.28985 0H11.629C12.3631 0 12.9638 0.6 12.9638 1.33333V10.6667C12.9638 11.4 12.3631 12 11.629 12H6.28985V10.6667H11.629V1.33333H6.28985V0Z"/>
	</symbol>

	<symbol viewBox="0 0 21 20" id="home">
		<path d="M18.5065 9.86329L10.4528 1.82423C10.3948 1.76619 10.3259 1.72015 10.2501 1.68873C10.1743 1.65732 10.093 1.64114 10.0109 1.64114C9.92881 1.64114 9.84752 1.65732 9.7717 1.68873C9.69587 1.72015 9.627 1.76619 9.56901 1.82423L1.51529 9.86329C1.28066 10.0977 1.14771 10.416 1.14771 10.7481C1.14771 11.4375 1.70886 11.9981 2.39907 11.9981H3.24765V17.7344C3.24765 18.0801 3.52726 18.3594 3.87334 18.3594H8.75953V13.9844H10.9494V18.3594H16.1485C16.4945 18.3594 16.7741 18.0801 16.7741 17.7344V11.9981H17.6227C17.9551 11.9981 18.2738 11.8672 18.5085 11.6309C18.9953 11.1426 18.9953 10.3516 18.5065 9.86329Z"/>
	</symbol>

	<symbol viewBox="0 0 21 20" id="portfolio">
		<path d="M8.56228 3.05998C9.57338 3.39998 6.61015 5.06998 8.46217 6.18998C9.5033 6.81998 11.7758 3.96998 12.917 3.32998C13.8881 2.78998 15.5899 2.67998 16.4509 4.55998C17.5421 6.93998 16.591 13.13 12.6567 15.62C8.68241 18.12 3.67694 16.85 1.94505 12.96C-0.0671432 8.42998 5.06846 1.86998 8.56228 3.05998ZM9.7736 9.50998C10.5044 11.15 14.4787 9.00998 13.5677 6.70998C12.9771 5.21998 9.08285 7.95998 9.7736 9.50998Z"/>
	</symbol>

	<symbol viewBox="0 0 21 20" id="contacts">
		<path d="M4.17117 17.5C3.71234 17.5 3.31941 17.3369 2.99239 17.0108C2.66592 16.6841 2.50269 16.2916 2.50269 15.8333C2.50269 15.375 2.66592 14.9825 2.99239 14.6558C3.31941 14.3297 3.71234 14.1666 4.17117 14.1666C4.63001 14.1666 5.02266 14.3297 5.34913 14.6558C5.67615 14.9825 5.83966 15.375 5.83966 15.8333C5.83966 16.2916 5.67615 16.6841 5.34913 17.0108C5.02266 17.3369 4.63001 17.5 4.17117 17.5ZM14.1821 17.5C14.1821 15.8889 13.8762 14.3783 13.2644 12.9683C12.6527 11.5589 11.8151 10.3228 10.7517 9.25998C9.68775 8.19776 8.45029 7.36109 7.03931 6.74998C5.62776 6.13887 4.11556 5.83331 2.50269 5.83331V3.33331C4.46316 3.33331 6.30545 3.70498 8.02955 4.44831C9.75366 5.19109 11.2553 6.20137 12.5345 7.47915C13.8136 8.75692 14.8253 10.2569 15.5695 11.9791C16.313 13.7014 16.6848 15.5416 16.6848 17.5H14.1821ZM9.17664 17.5C9.17664 15.6528 8.52648 14.08 7.22618 12.7816C5.92642 11.4828 4.35193 10.8333 2.50269 10.8333V8.33331C3.78186 8.33331 4.97761 8.57304 6.08994 9.05248C7.20226 9.53137 8.17221 10.1839 8.99978 11.01C9.82679 11.8366 10.48 12.8055 10.9594 13.9166C11.4394 15.0278 11.6794 16.2222 11.6794 17.5H9.17664Z"/>
	</symbol>

	<symbol viewBox="0 0 21 20" id="tel">
		<path d="M16.6443 17.5C16.7833 17.5 16.9293 17.4967 17.0823 17.49C17.2352 17.4828 17.3812 17.4722 17.5203 17.4583V12.5833L13.349 11.75L10.9297 14.1667C9.87303 13.5278 8.90308 12.7708 8.01989 11.8958C7.13726 11.0208 6.40396 10.0833 5.81999 9.08333L8.19759 6.6875L7.42591 2.5H2.54558C2.51777 2.63889 2.50387 2.78472 2.50387 2.9375V3.375C2.50387 5.16667 2.90375 6.91306 3.70351 8.61417C4.50272 10.3158 5.55943 11.8264 6.87364 13.1458C8.1873 14.4653 9.69561 15.5208 11.3986 16.3125C13.1021 17.1042 14.8507 17.5 16.6443 17.5Z"/>
	</symbol>

	<symbol viewBox="0 0 44 44" id="swipe">
		<path d="M9.72607 15.5486V9.20429H11.6294V11.742C13.152 10.4943 14.8332 9.54773 16.6731 8.9023C18.513 8.25772 20.4268 7.93542 22.4147 7.93542C24.4026 7.93542 26.3165 8.25772 28.1563 8.9023C29.9962 9.54773 31.6774 10.4943 33.2 11.742V9.20429H35.1033V15.5486H28.759V13.6453H32.4387C31.043 12.4187 29.4886 11.4777 27.7757 10.8221C26.0627 10.1665 24.2757 9.83872 22.4147 9.83872C20.5537 9.83872 18.7667 10.1665 17.0538 10.8221C15.3408 11.4777 13.7864 12.4187 12.3907 13.6453H16.0704V15.5486H9.72607ZM20.0356 35.8504L13.5327 29.0303L15.0553 27.4442L19.877 28.5545V14.9142C19.877 14.3855 20.0622 13.9363 20.4327 13.5666C20.8024 13.1961 21.2516 13.0109 21.7803 13.0109C22.309 13.0109 22.7581 13.1961 23.1278 13.5666C23.4983 13.9363 23.6836 14.3855 23.6836 14.9142V22.5274H25.46L32.7877 26.2071L31.4236 35.8504H20.0356Z"/>
	</symbol>

	<symbol viewBox="0 0 17 17" id="view">
		<path d="M8.49967 4.1875C9.06326 4.1875 9.60376 4.41138 10.0023 4.8099C10.4008 5.20841 10.6247 5.74891 10.6247 6.3125C10.6247 6.87608 10.4008 7.41659 10.0023 7.8151C9.60376 8.21362 9.06326 8.4375 8.49967 8.4375C7.93609 8.4375 7.39559 8.21362 6.99707 7.8151C6.59856 7.41659 6.37467 6.87608 6.37467 6.3125C6.37467 5.74891 6.59856 5.20841 6.99707 4.8099C7.39559 4.41138 7.93609 4.1875 8.49967 4.1875ZM8.49967 1C11.9422 1 15.0305 3.125 16.2913 6.3125C14.5984 10.6192 9.73926 12.73 5.43259 11.0371C3.27217 10.1871 1.55801 8.48 0.708008 6.3125C1.96884 3.125 5.05717 1 8.49967 1ZM2.25217 6.3125C3.93801 9.76208 8.11009 11.1929 11.5597 9.5C12.9468 8.82119 14.0684 7.69966 14.7472 6.3125C13.0613 2.86292 8.88926 1.43208 5.43967 3.125C4.05252 3.80381 2.93099 4.92534 2.25217 6.3125ZM6.37467 13.3958H4.95801V14.8125H6.37467V13.3958ZM9.20801 13.3958H7.79134V14.8125H9.20801V13.3958ZM12.0413 13.3958H10.6247V14.8125H12.0413V13.3958Z"/>
	</symbol>

	<symbol viewBox="0 0 9 14" id="slider-arrow-next">
		<path fill-rule="evenodd" clip-rule="evenodd" d="M8.46499 6.66066L1.79705 0L0.417969 1.37758L5.8123 6.76602L0.518032 12.0545L1.89594 13.4309L8.56388 6.77025L8.45958 6.66606L8.46499 6.66066Z"/>
	</symbol>

	<symbol viewBox="0 0 15 17" id="footer-copy">
		<path d="M2.92104 12.5205C2.96021 12.5815 2.98716 12.6498 3.00034 12.7214C3.01352 12.7929 3.01268 12.8664 2.99787 12.9377C2.98305 13.0089 2.95456 13.0765 2.914 13.1366C2.87345 13.1966 2.82164 13.248 2.76152 13.2877C2.7014 13.3275 2.63415 13.3548 2.56362 13.3682C2.49309 13.3816 2.42065 13.3807 2.35044 13.3657C2.28024 13.3507 2.21363 13.3218 2.15444 13.2806C2.09525 13.2395 2.04462 13.1869 2.00545 13.1259C1.27785 11.9898 0.889355 10.6646 0.886732 9.30978C0.88411 7.95492 1.26747 6.62817 1.99067 5.48925C2.0296 5.42808 2.08002 5.37529 2.13906 5.33389C2.1981 5.2925 2.26459 5.2633 2.33475 5.24798C2.4049 5.23266 2.47735 5.23152 2.54794 5.2446C2.61853 5.25769 2.68589 5.28476 2.74618 5.32427C2.80646 5.36377 2.85849 5.41494 2.89928 5.47484C2.94008 5.53475 2.96885 5.60223 2.98394 5.67341C2.99904 5.7446 3.00018 5.81811 2.98728 5.88974C2.97438 5.96138 2.9477 6.02973 2.90877 6.0909C2.67221 6.46387 2.47754 6.86255 2.3284 7.27948C2.02048 8.13994 1.91374 9.06121 2.01658 9.97068C2.11943 10.8801 2.42905 11.7529 2.92104 12.5203V12.5205ZM4.72183 4.28709C5.67998 3.69026 6.78779 3.38735 7.91175 3.41487C9.0357 3.44238 10.1278 3.79915 11.0565 4.44217C11.1761 4.52515 11.3234 4.55649 11.4658 4.52932C11.6082 4.50215 11.7342 4.41868 11.8159 4.29728C11.8977 4.17588 11.9286 4.02649 11.9018 3.88197C11.875 3.73746 11.7928 3.60966 11.6731 3.52668C10.57 2.76331 9.273 2.33976 7.93819 2.30703C6.60338 2.27429 5.2877 2.63377 4.14955 3.34217C4.02933 3.42072 3.94422 3.54394 3.91248 3.68541C3.88074 3.82688 3.90489 3.97534 3.97976 4.09895C4.05462 4.22256 4.17424 4.31149 4.31296 4.34666C4.45168 4.38183 4.59846 4.36045 4.72183 4.28709ZM14.6444 9.30431C14.6231 7.9792 14.2343 6.68699 13.5224 5.57585C13.4433 5.45265 13.3192 5.36638 13.1774 5.33602C13.0357 5.30566 12.8878 5.3337 12.7664 5.41398C12.645 5.49425 12.5599 5.62017 12.53 5.76405C12.5001 5.90793 12.5277 6.05797 12.6069 6.18117C13.206 7.11683 13.5335 8.20476 13.5517 9.32044C13.5618 10.0369 13.4425 10.7491 13.1998 11.422C13.0506 11.8389 12.8558 12.2376 12.6191 12.6105C12.5802 12.6717 12.5535 12.7401 12.5406 12.8117C12.5277 12.8833 12.5288 12.9568 12.5439 13.028C12.559 13.0992 12.5878 13.1667 12.6286 13.2266C12.6694 13.2865 12.7214 13.3377 12.7817 13.3772C12.842 13.4167 12.9094 13.4437 12.98 13.4568C13.0505 13.4699 13.123 13.4688 13.1931 13.4535C13.2633 13.4381 13.3298 13.4089 13.3888 13.3675C13.4479 13.3261 13.4983 13.2734 13.5372 13.2122C14.2756 12.0478 14.6606 10.6889 14.6444 9.30431ZM10.8061 14.4146C10.4331 14.6463 10.0359 14.835 9.62162 14.9772C8.76696 15.2701 7.85696 15.3577 6.96326 15.2331C6.06956 15.1086 5.21655 14.7752 4.47138 14.2593C4.41214 14.2182 4.34551 14.1893 4.27529 14.1744C4.20506 14.1594 4.13262 14.1587 4.0621 14.1721C3.99159 14.1856 3.92437 14.213 3.86429 14.2528C3.80422 14.2926 3.75246 14.344 3.71197 14.4042C3.67148 14.4643 3.64306 14.5319 3.62832 14.6031C3.61359 14.6744 3.61283 14.7479 3.62609 14.8195C3.63934 14.891 3.66636 14.9592 3.7056 15.0202C3.74484 15.0811 3.79552 15.1337 3.85476 15.1748C4.93367 15.9216 6.19813 16.3448 7.50318 16.3959C7.58741 16.3991 7.67154 16.4006 7.75558 16.4004C9.03443 16.3972 10.2878 16.037 11.3783 15.3593C11.4395 15.3211 11.4926 15.2712 11.5347 15.2122C11.5768 15.1532 11.607 15.0864 11.6237 15.0156C11.6403 14.9448 11.6431 14.8713 11.6317 14.7994C11.6204 14.7275 11.5952 14.6586 11.5577 14.5966C11.5201 14.5346 11.4708 14.4807 11.4127 14.4379C11.3546 14.3952 11.2888 14.3646 11.219 14.3477C11.1492 14.3308 11.0768 14.328 11.006 14.3395C10.9351 14.351 10.8672 14.3765 10.8061 14.4146ZM9.83804 9.37874C8.98464 8.93557 8.20515 8.90896 7.51713 8.88548C6.8478 8.86255 6.3193 8.84444 5.79471 8.4839C5.29522 8.1412 4.92291 7.5537 4.68752 6.73811C4.66738 6.66822 4.63387 6.60305 4.5889 6.5463C4.54394 6.48956 4.4884 6.44236 4.42545 6.40739C4.36251 6.37243 4.2934 6.35039 4.22206 6.34253C4.15072 6.33467 4.07856 6.34114 4.00968 6.36158C3.94081 6.38202 3.87658 6.41603 3.82066 6.46166C3.76474 6.50729 3.71822 6.56364 3.68377 6.62751C3.64931 6.69138 3.62759 6.76151 3.61984 6.8339C3.6121 6.90629 3.61848 6.97952 3.63862 7.0494C3.94735 8.11912 4.46664 8.91066 5.18199 9.40222C5.96762 9.94161 6.7368 9.96821 7.48032 9.9934C8.10949 10.0149 8.70408 10.0353 9.34023 10.3658C9.95936 10.6873 10.4795 11.2324 10.8855 11.9854C10.9551 12.1144 11.0723 12.21 11.2114 12.2513C11.3505 12.2926 11.5 12.2762 11.6271 12.2056C11.7542 12.135 11.8485 12.016 11.8892 11.8749C11.9299 11.7338 11.9137 11.5821 11.8441 11.4531C11.3309 10.5017 10.6563 9.80351 9.83804 9.37874ZM7.27226 4.50754L7.24577 7.38928C7.24443 7.53634 7.30071 7.67792 7.40222 7.78289C7.50373 7.88786 7.64217 7.94763 7.78709 7.94904H7.79239C7.93609 7.94861 8.07383 7.89074 8.17578 7.78798C8.27772 7.68522 8.33567 7.54584 8.33706 7.40003L8.36495 4.51801C8.36331 4.3729 8.30569 4.23421 8.20445 4.13171C8.1032 4.02921 7.9664 3.97105 7.82339 3.96972C7.68037 3.96839 7.54254 4.02398 7.43946 4.12458C7.33637 4.22518 7.27625 4.36276 7.27199 4.50783L7.27226 4.50754ZM7.77901 14.6688C7.92302 14.6687 8.06118 14.611 8.16348 14.5081C8.26579 14.4053 8.32395 14.2656 8.32535 14.1195L8.35184 11.2374C8.35251 11.1646 8.33903 11.0924 8.31218 11.0249C8.28534 10.9574 8.24565 10.8959 8.19538 10.8439C8.14511 10.792 8.08525 10.7506 8.01922 10.7221C7.95318 10.6936 7.88227 10.6786 7.81052 10.678H7.80522C7.66124 10.678 7.5231 10.7358 7.42084 10.8386C7.31859 10.9415 7.26048 11.0812 7.25916 11.2273L7.23266 14.109C7.23196 14.1818 7.2454 14.254 7.27222 14.3216C7.29903 14.3891 7.33869 14.4506 7.38893 14.5026C7.43917 14.5546 7.49901 14.596 7.56503 14.6245C7.63105 14.653 7.70196 14.6681 7.77371 14.6688H7.77901ZM7.84036 1.11896C7.94942 1.11902 8.05605 1.08625 8.14676 1.02481C8.23747 0.963368 8.30818 0.876008 8.34995 0.773781C8.39173 0.671555 8.40269 0.559053 8.38144 0.450505C8.3602 0.341958 8.30771 0.242242 8.23061 0.163969C8.15351 0.0856954 8.05527 0.0323819 7.94831 0.0107712C7.84135 -0.0108394 7.73047 0.000223644 7.62971 0.0425611C7.52894 0.0848986 7.44281 0.156608 7.38222 0.248621C7.32162 0.340633 7.28928 0.448814 7.28928 0.559481C7.28928 0.707669 7.34721 0.849804 7.45037 0.954694C7.55353 1.05958 7.69349 1.11866 7.83952 1.11896H7.84036Z"/>
	</symbol>

	<symbol viewBox="0 0 20 20" id="danger">
		<path d="M1.83301 13.1478L3.20444 9.8335L1.83301 6.51921L5.14729 5.14778L6.51872 1.8335L9.83301 3.20492L13.1473 1.8335L14.5187 5.14778L17.833 6.51921L16.4616 9.8335L17.833 13.1478L14.5187 14.5192L13.1473 17.8335L9.83301 16.4621L6.51872 17.8335L5.14729 14.5192L1.83301 13.1478ZM10.6493 13.9151V12.2825H9.01668V13.9151H10.6493ZM10.6493 10.6498V5.75186H9.01668V10.6498H10.6493Z"/>
	</symbol>

	<symbol viewBox="0 0 11 11" id="open-link">
		<path d="M8.62598 10.5H1.75098C1.41946 10.5 1.10151 10.3683 0.867093 10.1339C0.632673 9.89946 0.500977 9.58152 0.500977 9.25V2.375C0.500977 2.04348 0.632673 1.72554 0.867093 1.49112C1.10151 1.2567 1.41946 1.125 1.75098 1.125H4.25098V2.375H1.75098V9.25H8.62598V6.75H9.87598V9.25C9.87598 9.58152 9.74428 9.89946 9.50986 10.1339C9.27544 10.3683 8.9575 10.5 8.62598 10.5ZM5.31348 6.56687L4.43223 5.68312L8.36535 1.75H6.12598V0.5H10.501V4.875H9.25098V2.63437L5.31348 6.56687Z"/>
	</symbol>

	<symbol viewBox="0 0 10 12" id="edit">
		<path d="M8.92857 11.25H1.07143C0.479911 11.25 0 10.7461 0 10.125V1.875C0 1.25391 0.479911 0.75 1.07143 0.75H8.92857C9.52009 0.75 10 1.25391 10 1.875V10.125C10 10.7461 9.52009 11.25 8.92857 11.25ZM5.31473 4.16953L2.28571 7.35L2.14509 8.68828C2.12723 8.86641 2.27009 9.01875 2.44196 9L3.71652 8.85234L6.74554 5.67188C6.79688 5.61797 6.79688 5.52891 6.74554 5.47266L5.5067 4.17188C5.45089 4.11562 5.36607 4.11562 5.31473 4.16953ZM7.70089 3.86953L7.02902 3.16406C6.8192 2.94375 6.47991 2.94375 6.27232 3.16406L5.7567 3.70547C5.70536 3.75938 5.70536 3.84844 5.7567 3.90469L6.99554 5.20547C7.04688 5.25938 7.1317 5.25938 7.18527 5.20547L7.70089 4.66406C7.90848 4.44609 7.90848 4.08984 7.70089 3.86953Z"/>
	</symbol>

	<symbol viewBox="0 0 21 20" id="main">
		<path d="M18.5065 9.86329L10.4528 1.82423C10.3948 1.76619 10.3259 1.72015 10.2501 1.68873C10.1743 1.65732 10.093 1.64114 10.0109 1.64114C9.92881 1.64114 9.84752 1.65732 9.7717 1.68873C9.69587 1.72015 9.627 1.76619 9.56901 1.82423L1.51529 9.86329C1.28066 10.0977 1.14771 10.416 1.14771 10.7481C1.14771 11.4375 1.70886 11.9981 2.39907 11.9981H3.24765V17.7344C3.24765 18.0801 3.52726 18.3594 3.87334 18.3594H8.75953V13.9844H10.9494V18.3594H16.1485C16.4945 18.3594 16.7741 18.0801 16.7741 17.7344V11.9981H17.6227C17.9551 11.9981 18.2738 11.8672 18.5085 11.6309C18.9953 11.1426 18.9953 10.3516 18.5065 9.86329Z"/>
	</symbol>

	<symbol viewBox="0 0 21 20" id="portfolio">
		<path d="M8.56216 3.05998C9.57326 3.39998 6.61002 5.06998 8.46205 6.18998C9.50318 6.81998 11.7757 3.96998 12.9169 3.32998C13.888 2.78998 15.5898 2.67998 16.4508 4.55998C17.542 6.93998 16.5909 13.13 12.6566 15.62C8.68229 18.12 3.67682 16.85 1.94493 12.96C-0.0672653 8.42998 5.06834 1.86998 8.56216 3.05998ZM9.77348 9.50998C10.5043 11.15 14.4786 9.00998 13.5676 6.70998C12.977 5.21998 9.08272 7.95998 9.77348 9.50998Z"/>
	</symbol>

	<symbol viewBox="0 0 21 20" id="feedback">
		<path d="M4.17117 17.5C3.71234 17.5 3.31941 17.3369 2.99239 17.0108C2.66592 16.6841 2.50269 16.2916 2.50269 15.8333C2.50269 15.375 2.66592 14.9825 2.99239 14.6558C3.31941 14.3297 3.71234 14.1666 4.17117 14.1666C4.63001 14.1666 5.02266 14.3297 5.34913 14.6558C5.67615 14.9825 5.83966 15.375 5.83966 15.8333C5.83966 16.2916 5.67615 16.6841 5.34913 17.0108C5.02266 17.3369 4.63001 17.5 4.17117 17.5ZM14.1821 17.5C14.1821 15.8889 13.8762 14.3783 13.2644 12.9683C12.6527 11.5589 11.8151 10.3228 10.7517 9.25998C9.68775 8.19776 8.45029 7.36109 7.03931 6.74998C5.62776 6.13887 4.11556 5.83331 2.50269 5.83331V3.33331C4.46316 3.33331 6.30545 3.70498 8.02955 4.44831C9.75366 5.19109 11.2553 6.20137 12.5345 7.47915C13.8136 8.75692 14.8253 10.2569 15.5695 11.9791C16.313 13.7014 16.6848 15.5416 16.6848 17.5H14.1821ZM9.17664 17.5C9.17664 15.6528 8.52648 14.08 7.22618 12.7816C5.92642 11.4828 4.35193 10.8333 2.50269 10.8333V8.33331C3.78186 8.33331 4.97761 8.57304 6.08994 9.05248C7.20226 9.53137 8.17221 10.1839 8.99978 11.01C9.82679 11.8366 10.48 12.8055 10.9594 13.9166C11.4394 15.0278 11.6794 16.2222 11.6794 17.5H9.17664Z"/>
	</symbol>

	<!-- <symbol viewBox="0 0 21 20" id="contacts-2">
		<path d="M16.6443 17.5C16.7833 17.5 16.9293 17.4967 17.0823 17.49C17.2352 17.4828 17.3812 17.4722 17.5203 17.4583V12.5833L13.349 11.75L10.9297 14.1667C9.87303 13.5278 8.90308 12.7708 8.01989 11.8958C7.13726 11.0208 6.40396 10.0833 5.81999 9.08333L8.19759 6.6875L7.42591 2.5H2.54558C2.51777 2.63889 2.50387 2.78472 2.50387 2.9375V3.375C2.50387 5.16667 2.90375 6.91306 3.70351 8.61417C4.50272 10.3158 5.55943 11.8264 6.87364 13.1458C8.1873 14.4653 9.69561 15.5208 11.3986 16.3125C13.1021 17.1042 14.8507 17.5 16.6443 17.5Z"/>
	</symbol> -->
		
</svg>