<svg width="21" height="20" viewBox="0 0 21 20" fill="none" xmlns="http://www.w3.org/2000/svg">
<g id="material-symbols:phone-enabled-sharp">
<path id="Vector" d="M16.6443 17.5C16.7833 17.5 16.9293 17.4967 17.0823 17.49C17.2352 17.4828 17.3812 17.4722 17.5203 17.4583V12.5833L13.349 11.75L10.9297 14.1667C9.87303 13.5278 8.90308 12.7708 8.01989 11.8958C7.13726 11.0208 6.40396 10.0833 5.81999 9.08333L8.19759 6.6875L7.42591 2.5H2.54558C2.51777 2.63889 2.50387 2.78472 2.50387 2.9375V3.375C2.50387 5.16667 2.90375 6.91306 3.70351 8.61417C4.50272 10.3158 5.55943 11.8264 6.87364 13.1458C8.1873 14.4653 9.69561 15.5208 11.3986 16.3125C13.1021 17.1042 14.8507 17.5 16.6443 17.5Z" fill="#E4E4E4"/>
</g>
</svg>
