<svg width="21" height="20" viewBox="0 0 21 20" fill="none" xmlns="http://www.w3.org/2000/svg">
<g id="material-symbols:rss-feed">
<path id="Vector" d="M4.17117 17.5C3.71234 17.5 3.31941 17.3369 2.99239 17.0108C2.66592 16.6841 2.50269 16.2916 2.50269 15.8333C2.50269 15.375 2.66592 14.9825 2.99239 14.6558C3.31941 14.3297 3.71234 14.1666 4.17117 14.1666C4.63001 14.1666 5.02266 14.3297 5.34913 14.6558C5.67615 14.9825 5.83966 15.375 5.83966 15.8333C5.83966 16.2916 5.67615 16.6841 5.34913 17.0108C5.02266 17.3369 4.63001 17.5 4.17117 17.5ZM14.1821 17.5C14.1821 15.8889 13.8762 14.3783 13.2644 12.9683C12.6527 11.5589 11.8151 10.3228 10.7517 9.25998C9.68775 8.19776 8.45029 7.36109 7.03931 6.74998C5.62776 6.13887 4.11556 5.83331 2.50269 5.83331V3.33331C4.46316 3.33331 6.30545 3.70498 8.02955 4.44831C9.75366 5.19109 11.2553 6.20137 12.5345 7.47915C13.8136 8.75692 14.8253 10.2569 15.5695 11.9791C16.313 13.7014 16.6848 15.5416 16.6848 17.5H14.1821ZM9.17664 17.5C9.17664 15.6528 8.52648 14.08 7.22618 12.7816C5.92642 11.4828 4.35193 10.8333 2.50269 10.8333V8.33331C3.78186 8.33331 4.97761 8.57304 6.08994 9.05248C7.20226 9.53137 8.17221 10.1839 8.99978 11.01C9.82679 11.8366 10.48 12.8055 10.9594 13.9166C11.4394 15.0278 11.6794 16.2222 11.6794 17.5H9.17664Z" fill="#E4E4E4"/>
</g>
</svg>
