<svg width="21" height="20" viewBox="0 0 21 20" fill="none" xmlns="http://www.w3.org/2000/svg">
<path d="M18.5065 9.86329L10.4528 1.82423C10.3948 1.76619 10.3259 1.72015 10.2501 1.68873C10.1743 1.65732 10.093 1.64114 10.0109 1.64114C9.92881 1.64114 9.84752 1.65732 9.7717 1.68873C9.69587 1.72015 9.627 1.76619 9.56901 1.82423L1.51529 9.86329C1.28066 10.0977 1.14771 10.416 1.14771 10.7481C1.14771 11.4375 1.70886 11.9981 2.39907 11.9981H3.24765V17.7344C3.24765 18.0801 3.52726 18.3594 3.87334 18.3594H8.75953V13.9844H10.9494V18.3594H16.1485C16.4945 18.3594 16.7741 18.0801 16.7741 17.7344V11.9981H17.6227C17.9551 11.9981 18.2738 11.8672 18.5085 11.6309C18.9953 11.1426 18.9953 10.3516 18.5065 9.86329Z" fill="#E4E4E4"/>
</svg>
