<svg width="21" height="20" viewBox="0 0 21 20" fill="none" xmlns="http://www.w3.org/2000/svg">
<path d="M4.1929 17.5002C3.73407 17.5002 3.34114 17.3371 3.01412 17.011C2.68765 16.6843 2.52441 16.2918 2.52441 15.8335C2.52441 15.3752 2.68765 14.9827 3.01412 14.656C3.34114 14.3299 3.73407 14.1668 4.1929 14.1668C4.65174 14.1668 5.04439 14.3299 5.37086 14.656C5.69788 14.9827 5.86139 15.3752 5.86139 15.8335C5.86139 16.2918 5.69788 16.6843 5.37086 17.011C5.04439 17.3371 4.65174 17.5002 4.1929 17.5002ZM14.2038 17.5002C14.2038 15.8891 13.8979 14.3785 13.2862 12.9685C12.6744 11.5591 11.8368 10.3229 10.7734 9.26016C9.70948 8.19794 8.47202 7.36127 7.06103 6.75016C5.64949 6.13905 4.13729 5.8335 2.52441 5.8335V3.3335C4.48489 3.3335 6.32718 3.70516 8.05128 4.4485C9.77539 5.19127 11.277 6.20155 12.5562 7.47933C13.8354 8.75711 14.847 10.2571 15.5912 11.9793C16.3348 13.7016 16.7066 15.5418 16.7066 17.5002H14.2038ZM9.19837 17.5002C9.19837 15.6529 8.54821 14.0802 7.2479 12.7818C5.94815 11.4829 4.37366 10.8335 2.52441 10.8335V8.3335C3.80359 8.3335 4.99934 8.57322 6.11166 9.05266C7.22399 9.53155 8.19394 10.1841 9.02151 11.0102C9.84852 11.8368 10.5017 12.8057 10.9811 13.9168C11.4611 15.0279 11.7011 16.2224 11.7011 17.5002H9.19837Z" fill="url(#paint0_linear_1_3538)"/>
<defs>
<linearGradient id="paint0_linear_1_3538" x1="9.61549" y1="3.3335" x2="9.61549" y2="17.5002" gradientUnits="userSpaceOnUse">
<stop stop-color="#005BBB"/>
<stop offset="1" stop-color="#6DB4FF"/>
</linearGradient>
</defs>
</svg>
