<svg width="21" height="20" viewBox="0 0 21 20" fill="none" xmlns="http://www.w3.org/2000/svg">
<path d="M16.6646 17.5C16.8036 17.5 16.9496 17.4967 17.1025 17.49C17.2555 17.4828 17.4015 17.4722 17.5405 17.4583V12.5833L13.3693 11.75L10.95 14.1667C9.89329 13.5278 8.92334 12.7708 8.04016 11.8958C7.15753 11.0208 6.42423 10.0833 5.84025 9.08333L8.21785 6.6875L7.44617 2.5H2.56585C2.53804 2.63889 2.52413 2.78472 2.52413 2.9375V3.375C2.52413 5.16667 2.92402 6.91306 3.72378 8.61417C4.52298 10.3158 5.57969 11.8264 6.8939 13.1458C8.20756 14.4653 9.71587 15.5208 11.4188 16.3125C13.1224 17.1042 14.8709 17.5 16.6646 17.5Z" fill="url(#paint0_linear_1_3536)"/>
<defs>
<linearGradient id="paint0_linear_1_3536" x1="10.0323" y1="2.5" x2="10.0323" y2="17.5" gradientUnits="userSpaceOnUse">
<stop stop-color="#005BBB"/>
<stop offset="1" stop-color="#6DB4FF"/>
</linearGradient>
</defs>
</svg>
