<svg width="21" height="20" viewBox="0 0 21 20" fill="none" xmlns="http://www.w3.org/2000/svg">
<path d="M18.5282 9.86326L10.4745 1.8242C10.4165 1.76616 10.3476 1.72012 10.2718 1.6887C10.196 1.65728 10.1147 1.64111 10.0326 1.64111C9.95054 1.64111 9.86925 1.65728 9.79343 1.6887C9.7176 1.72012 9.64873 1.76616 9.59074 1.8242L1.53702 9.86326C1.30239 10.0976 1.16943 10.416 1.16943 10.748C1.16943 11.4375 1.73059 11.998 2.4208 11.998H3.26938V17.7344C3.26938 18.0801 3.54898 18.3594 3.89507 18.3594H8.78126V13.9844H10.9711V18.3594H16.1702C16.5163 18.3594 16.7959 18.0801 16.7959 17.7344V11.998H17.6445C17.9768 11.998 18.2956 11.8672 18.5302 11.6308C19.017 11.1426 19.017 10.3515 18.5282 9.86326V9.86326Z" fill="url(#paint0_linear_1_3526)"/>
<path d="M18.5282 9.86326L10.4745 1.8242C10.4165 1.76616 10.3476 1.72012 10.2718 1.6887C10.196 1.65728 10.1147 1.64111 10.0326 1.64111C9.95054 1.64111 9.86925 1.65728 9.79343 1.6887C9.7176 1.72012 9.64873 1.76616 9.59074 1.8242L1.53702 9.86326C1.30239 10.0976 1.16943 10.416 1.16943 10.748C1.16943 11.4375 1.73059 11.998 2.4208 11.998H3.26938V17.7344C3.26938 18.0801 3.54898 18.3594 3.89507 18.3594H8.78126V13.9844H10.9711V18.3594H16.1702C16.5163 18.3594 16.7959 18.0801 16.7959 17.7344V11.998H17.6445C17.9768 11.998 18.2956 11.8672 18.5302 11.6308C19.017 11.1426 19.017 10.3515 18.5282 9.86326V9.86326Z" fill="black" fill-opacity="0.2"/>
<defs>
<linearGradient id="paint0_linear_1_3526" x1="10.0323" y1="1.64111" x2="10.0323" y2="18.3594" gradientUnits="userSpaceOnUse">
<stop stop-color="#005BBB"/>
<stop offset="1" stop-color="#6DB4FF"/>
</linearGradient>
</defs>
</svg>
